# xmcd
#
# Track frame offsets:
#	150
#	16180
#	30896
#	41876
#	52607
#	66682
#	81551
#	95619
#	108286
#	123482
#	139061
#	152007
#	163623
#	182044
#	199985
#	212591
#	229138
#	242154
#	256570
#	271961
#	286795
#
# Disc length: 4040 seconds
#
# Revision: 0
# Processed by: cddbd v1.5.2PL0 Copyright (c) Steve Scherf et al.
# Submitted via: EZCDAudioConverter 2.2.2.1
#
DISCID=210fc615
DTITLE=Nilton Cesar - The Collection Forever
DYEAR=1992
DGENRE=Balada
TTITLE0=La ultima cancion
TTITLE1=Cerca de los ojos
TTITLE2=La enamorada que soñe
TTITLE3=El dia que parti
TTITLE4=Yo hable sin pensar
TTITLE5=Pensando bien
TTITLE6=Mi corazon que te amara tanto
TTITLE7=Dos en un solo corazon
TTITLE8=Profesor apasionado
TTITLE9=Otra vez
TTITLE10=Todo el mundo
TTITLE11=Lilian
TTITLE12=Vacaciones en La India
TTITLE13=No me interesa
TTITLE14=Lenita
TTITLE15=Amor... amor... amor
TTITLE16=Te quiero en este atardecer
TTITLE17=Nunca mas
TTITLE18=Felicidad
TTITLE19=Simplemente... te amo
TTITLE20=Cerca, tan cerca
EXTD=
EXTT0=
EXTT1=
EXTT2=
EXTT3=
EXTT4=
EXTT5=
EXTT6=
EXTT7=
EXTT8=
EXTT9=
EXTT10=
EXTT11=
EXTT12=
EXTT13=
EXTT14=
EXTT15=
EXTT16=
EXTT17=
EXTT18=
EXTT19=
EXTT20=
PLAYORDER=
